HIERARCHY
ROOT hip
{
  OFFSET 278.721 91.3948 -11.1141
  CHANNELS 6 Xposition Yposition Zposition Zrotation Xrotation Yrotation
  JOINT abdomen
  {
    OFFSET 0 20.6881 -0.73152
    CHANNELS 3 Zrotation Xrotation Yrotation
    JOINT chest
    {
      OFFSET 0 11.7043 -0.48768
      CHANNELS 3 Zrotation Xrotation Yrotation
      JOINT neck
      {
        OFFSET 0 22.1894 -2.19456
        CHANNELS 3 Zrotation Xrotation Yrotation
        JOINT head
        {
          OFFSET -0.24384 7.07133 1.2192
          CHANNELS 3 Zrotation Xrotation Yrotation
          JOINT leftEye
          {
            OFFSET 4.14528 8.04674 8.04672
            CHANNELS 3 Zrotation Xrotation Yrotation
            End Site
            {
              OFFSET 1 0 0
            }
          }
          JOINT rightEye
          {
            OFFSET -3.6576 8.04674 8.04672
            CHANNELS 3 Zrotation Xrotation Yrotation
            End Site
            {
              OFFSET 1 0 0
            }
          }
        }
      }
      JOINT rCollar
      {
        OFFSET -2.68224 19.2634 -4.8768
        CHANNELS 3 Zrotation Xrotation Yrotation
        JOINT rShldr
        {
          OFFSET -8.77824 -1.95073 1.46304
          CHANNELS 3 Zrotation Xrotation Yrotation
          JOINT rForeArm
          {
            OFFSET -28.1742 -1.7115 0.48768
            CHANNELS 3 Zrotation Xrotation Yrotation
            JOINT rHand
            {
              OFFSET -22.5879 0.773209 7.07136
              CHANNELS 3 Zrotation Xrotation Yrotation
              JOINT rThumb1
              {
                OFFSET -1.2192 -0.487915 3.41376
                CHANNELS 3 Zrotation Xrotation Yrotation
                JOINT rThumb2
                {
                  OFFSET -3.37035 -0.52449 3.41376
                  CHANNELS 3 Zrotation Xrotation Yrotation
                  End Site
                  {
                    OFFSET -1.78271 -1.18214 1.43049
                  }
                }
              }
              JOINT rIndex1
              {
                OFFSET -7.75947 0.938293 5.60832
                CHANNELS 3 Zrotation Xrotation Yrotation
                JOINT rIndex2
                {
                  OFFSET -2.54057 -0.884171 1.56538
                  CHANNELS 3 Zrotation Xrotation Yrotation
                  End Site
                  {
                    OFFSET -1.62519 -0.234802 1.16502
                  }
                }
              }
              JOINT rMid1
              {
                OFFSET -8.24714 1.18213 3.41376
                CHANNELS 3 Zrotation Xrotation Yrotation
                JOINT rMid2
                {
                  OFFSET -3.10165 -0.590103 1.0647
                  CHANNELS 3 Zrotation Xrotation Yrotation
                  End Site
                  {
                    OFFSET -2.48547 -0.328903 0.83742
                  }
                }
              }
              JOINT rRing1
              {
                OFFSET -8.82822 0.546677 1.51678
                CHANNELS 3 Zrotation Xrotation Yrotation
                JOINT rRing2
                {
                  OFFSET -2.60934 -0.819778 -0.0198488
                  CHANNELS 3 Zrotation Xrotation Yrotation
                  End Site
                  {
                    OFFSET -2.33842 -0.294052 0.168128
                  }
                }
              }
              JOINT rPinky1
              {
                OFFSET -8.27202 -0.0477905 -0.4584
                CHANNELS 3 Zrotation Xrotation Yrotation
                JOINT rPinky2
                {
                  OFFSET -1.82734 -0.647385 -0.700984
                  CHANNELS 3 Zrotation Xrotation Yrotation
                  End Site
                  {
                    OFFSET -1.69225 -0.51767 -0.607171
                  }
                }
              }
            }
          }
        }
      }
      JOINT lCollar
      {
        OFFSET 2.68224 19.2634 -4.8768
        CHANNELS 3 Zrotation Xrotation Yrotation
        JOINT lShldr
        {
          OFFSET 8.77824 -1.95073 1.46304
          CHANNELS 3 Zrotation Xrotation Yrotation
          JOINT lForeArm
          {
            OFFSET 28.1742 -1.7115 0.48768
            CHANNELS 3 Zrotation Xrotation Yrotation
            JOINT lHand
            {
              OFFSET 22.5879 0.773209 7.07136
              CHANNELS 3 Zrotation Xrotation Yrotation
              JOINT lThumb1
              {
                OFFSET 1.2192 -0.487915 3.41376
                CHANNELS 3 Zrotation Xrotation Yrotation
                JOINT lThumb2
                {
                  OFFSET 3.37035 -0.52449 3.41376
                  CHANNELS 3 Zrotation Xrotation Yrotation
                  End Site
                  {
                    OFFSET 1.78271 -1.18214 1.43049
                  }
                }
              }
              JOINT lIndex1
              {
                OFFSET 7.75947 0.938293 5.60832
                CHANNELS 3 Zrotation Xrotation Yrotation
                JOINT lIndex2
                {
                  OFFSET 2.54057 -0.884171 1.56538
                  CHANNELS 3 Zrotation Xrotation Yrotation
                  End Site
                  {
                    OFFSET 1.62519 -0.234802 1.16502
                  }
                }
              }
              JOINT lMid1
              {
                OFFSET 8.24714 1.18213 3.41376
                CHANNELS 3 Zrotation Xrotation Yrotation
                JOINT lMid2
                {
                  OFFSET 3.10165 -0.590103 1.0647
                  CHANNELS 3 Zrotation Xrotation Yrotation
                  End Site
                  {
                    OFFSET 2.48547 -0.328903 0.83742
                  }
                }
              }
              JOINT lRing1
              {
                OFFSET 8.82822 0.546677 1.51678
                CHANNELS 3 Zrotation Xrotation Yrotation
                JOINT lRing2
                {
                  OFFSET 2.60934 -0.819778 -0.0198488
                  CHANNELS 3 Zrotation Xrotation Yrotation
                  End Site
                  {
                    OFFSET 2.33842 -0.294052 0.168128
                  }
                }
              }
              JOINT lPinky1
              {
                OFFSET 8.27202 -0.0477905 -0.4584
                CHANNELS 3 Zrotation Xrotation Yrotation
                JOINT lPinky2
                {
                  OFFSET 1.82734 -0.647385 -0.700984
                  CHANNELS 3 Zrotation Xrotation Yrotation
                  End Site
                  {
                    OFFSET 1.69225 -0.51767 -0.607171
                  }
                }
              }
            }
          }
        }
      }
    }
  }
  JOINT rButtock
  {
    OFFSET -8.77824 4.35084 1.2192
    CHANNELS 3 Zrotation Xrotation Yrotation
    JOINT rThigh
    {
      OFFSET 0 -1.70687 -2.19456
      CHANNELS 3 Zrotation Xrotation Yrotation
      JOINT rShin
      {
        OFFSET 0 -36.8199 0.73152
        CHANNELS 3 Zrotation Xrotation Yrotation
        JOINT rFoot
        {
          OFFSET 0.73152 -45.1104 -5.12064
          CHANNELS 3 Zrotation Xrotation Yrotation
          End Site
          {
            OFFSET -1.1221 -3.69964 12.103
          }
        }
      }
    }
  }
  JOINT lButtock
  {
    OFFSET 8.77824 4.35084 1.2192
    CHANNELS 3 Zrotation Xrotation Yrotation
    JOINT lThigh
    {
      OFFSET 0 -1.70687 -2.19456
      CHANNELS 3 Zrotation Xrotation Yrotation
      JOINT lShin
      {
        OFFSET 0 -36.8199 0.73152
        CHANNELS 3 Zrotation Xrotation Yrotation
        JOINT lFoot
        {
          OFFSET -0.73152 -45.1104 -5.12064
          CHANNELS 3 Zrotation Xrotation Yrotation
          End Site
          {
            OFFSET 1.1221 -3.69964 12.103
          }
        }
      }
    }
  }
}
MOTION
Frames:	4
Frame Time:	0.00833333
-159.186 81.9497 8.57547 -1.46718 0.00515139 0.0277559 1.92991 -0.00172163 0.0523833 0.532089 0.00507156 0.0921237 1.97841e-014 0 -6.21202e-016 5.93248e-014 3.18055e-015 -2.01425e-015 -0 0 0 -0 0 0 1.01367e-014 -4.96962e-017 -1.49089e-016 2.1116e-013 -9.69075e-016 -5.56597e-015 3.61719e-012 -1.11121e-012 -1.62208e-013 4.13791e-011 8.97165e-013 -1.35174e-012 9.76158e-011 -4.65443e-013 -3.28233e-012 1.68575e-010 -8.0468e-013 -5.6924e-012 9.76208e-011 -4.65156e-013 -3.29505e-012 7.73091 5.47488 0.417314 9.7616e-011 -4.66051e-013 -3.28233e-012 2.90554 0.965183 0.102902 9.76228e-011 -4.65454e-013 -3.29028e-012 10.2786 0.731801 0.0259123 9.76074e-011 -4.61578e-013 -3.28551e-012 2.22167 -0.733487 -0.20892 9.94116e-015 -4.77549e-017 -4.96962e-016 2.08392e-013 -1.47846e-015 -7.7526e-015 3.61823e-012 1.04282e-012 -1.62208e-013 4.1414e-011 -1.27095e-012 -1.34856e-012 9.76866e-011 -4.89663e-013 -3.29187e-012 1.68703e-010 -8.42847e-013 -5.67809e-012 9.76804e-011 -4.87818e-013 -3.28233e-012 -7.73091 5.47488 -0.417314 9.76872e-011 -4.89209e-013 -3.29187e-012 -2.90554 0.965183 -0.102902 9.76799e-011 -4.89507e-013 -3.28949e-012 -10.2786 0.731801 -0.0259123 9.76929e-011 -4.87022e-013 -3.29824e-012 -2.22167 -0.733487 0.20892 -2.03217e-016 0 -3.88251e-019 1.95904 -7.26121 -0.19199 0.00412363 7.58538 0.10709 -0.52082 -0.33071 0.0522755 2.03217e-016 0 3.88251e-019 0.976242 -1.92613 0.000877112 0.00899035 -2.0786 0.074091 0.488335 3.99808 -0.136805 
-152.225 75.8255 -4.81208 7.77408 -12.7836 -31.756 -6.81234 5.3315 -4.24645 2.34439 -0.362644 -1.3822 1.34774 -3.76236 1.51585 0.132631 1.9931 2.3109 -0 0 0 -0 0 0 -8.64461e-015 2.59395e-013 5.12119e-014 15.1488 20.4683 -14.0305 -13.4851 -10.5533 14.0634 0.0692884 -5.85747 -0.80787 6.04091e-012 -3.06853e-010 3.29379e-010 3.64551e-012 -5.31936e-010 5.68974e-010 6.04585e-012 -3.06854e-010 3.29366e-010 7.73091 5.47488 0.417314 6.04125e-012 -3.06854e-010 3.29378e-010 2.90554 0.965183 0.102902 6.04622e-012 -3.06854e-010 3.29373e-010 10.2786 0.731801 0.0259123 6.03401e-012 -3.06851e-010 3.29379e-010 2.22167 -0.733487 -0.20892 -8.72474e-015 2.59389e-013 5.09502e-014 -13.625 11.0176 -11.5293 20.431 -18.2105 -15.1569 -0.0187146 -3.07287 0.429704 -5.97037e-011 -2.84569e-010 -8.8409e-011 -1.02193e-010 -4.88231e-010 -1.55879e-010 -5.97078e-011 -2.84567e-010 -8.83993e-011 -7.73091 5.47488 -0.417314 -5.97017e-011 -2.84568e-010 -8.84099e-011 -2.90554 0.965183 -0.102902 -5.9711e-011 -2.84567e-010 -8.84072e-011 -10.2786 0.731801 -0.0259123 -5.96998e-011 -2.84566e-010 -8.84153e-011 -2.22167 -0.733487 0.20892 -2.03217e-016 0 -3.88251e-019 -6.77026 -22.4309 -5.02288 0.0210869 29.6297 0.420447 0.794548 2.42955 11.6979 2.03217e-016 0 3.88251e-019 -3.22999 5.6079 0.0734582 -0.0927532 2.91406 -0.229661 0.501394 3.0232 -1.93118 
-148.39 75.9582 -4.66861 5.53887 -13.21 -66.9662 -15.3075 10.9091 -8.85567 4.2247 -0.777264 -2.92906 2.98189 -7.74936 3.12175 0.148047 4.09744 4.7268 -0 0 0 -0 0 0 -2.71069e-014 5.37502e-013 1.11344e-013 44.1202 37.6283 -34.9407 -22.0227 -19.4914 30.3174 -0.0412534 -12.0911 -1.69688 -7.03177e-011 -5.76193e-010 6.10272e-010 -1.34578e-010 -9.99164e-010 1.05455e-009 -7.03127e-011 -5.76195e-010 6.10259e-010 7.73091 5.47488 0.417314 -7.03171e-011 -5.76195e-010 6.1027e-010 2.90554 0.965183 0.102902 -7.03143e-011 -5.76196e-010 6.10269e-010 10.2786 0.731801 0.0259123 -7.0323e-011 -5.76193e-010 6.10275e-010 2.22167 -0.733487 -0.20892 -2.70636e-014 5.37489e-013 1.11177e-013 -23.0659 21.1325 -25.1102 30.3509 -32.8892 -36.0241 0.0124056 -6.37609 0.895915 -2.17042e-010 -5.71468e-010 -1.94312e-010 -3.72869e-010 -9.80214e-010 -3.42237e-010 -2.17044e-010 -5.71464e-010 -1.94301e-010 -7.73091 5.47488 -0.417314 -2.17039e-010 -5.71465e-010 -1.94313e-010 -2.90554 0.965183 -0.102902 -2.1705e-010 -5.71463e-010 -1.9431e-010 -10.2786 0.731801 -0.0259123 -2.17041e-010 -5.71462e-010 -1.94318e-010 -2.22167 -0.733487 0.20892 -2.03217e-016 0 -3.88251e-019 -19.612 -38.0962 -11.9759 -0.406836 53.389 1.08623 0.926907 5.18381 24.7704 2.03217e-016 0 3.88251e-019 -7.79597 13.5162 0.247995 -0.146523 8.11366 -0.564594 0.440671 2.00317 -3.99161 
-145.035 79.4093 -5.08852 4.85169 1.90234 -91.9146 -21.8408 15.6334 -13.289 5.91228 -1.09526 -4.33156 4.64973 -11.2552 4.62691 -0.085336 5.94031 6.96611 -0 0 0 -0 0 0 -4.62073e-014 7.78284e-013 1.53934e-013 81.8566 43.5869 -61.166 -25.3737 -23.8234 46.3688 -0.308112 -17.5581 -2.52884 -1.77109e-010 -9.19628e-010 9.94702e-010 -3.26214e-010 -1.5942e-009 1.71831e-009 -1.77104e-010 -9.1963e-010 9.94689e-010 7.73091 5.47488 0.417314 -1.77108e-010 -9.19631e-010 9.94699e-010 2.90554 0.965183 0.102902 -1.77107e-010 -9.19632e-010 9.947e-010 10.2786 0.731801 0.0259123 -1.77113e-010 -9.19629e-010 9.94707e-010 2.22167 -0.733487 -0.20892 -4.60565e-014 7.78264e-013 1.53845e-013 -27.1369 27.4191 -38.9775 29.9148 -37.459 -59.481 0.0836575 -9.21651 1.3041 -3.74484e-010 -8.52729e-010 -2.58643e-010 -6.43987e-010 -1.46301e-009 -4.5628e-010 -3.74484e-010 -8.52724e-010 -2.58633e-010 -7.73091 5.47488 -0.417314 -3.74479e-010 -8.52725e-010 -2.58646e-010 -2.90554 0.965183 -0.102902 -3.74493e-010 -8.52723e-010 -2.58643e-010 -10.2786 0.731801 -0.0259123 -3.74485e-010 -8.52723e-010 -2.5865e-010 -2.22167 -0.733487 0.20892 -2.03217e-016 0 -3.88251e-019 -35.783 -50.9378 -21.8183 -2.37406 73.6968 3.15086 0.270076 6.63497 35.2276 2.03217e-016 0 3.88251e-019 -11.703 20.6758 0.232544 -0.134399 12.8981 -0.857822 0.34454 1.07356 -5.51351 
